# AST/ASF file generated using VICON BodyLanguage
# -----------------------------------------------
:version 1.10
:name VICON
:units
  mass 1.0
  length 0.45
  angle deg
:documentation
   .ast/.asf automatically generated from VICON data using
   VICON BodyBuilder and BodyLanguage model FoxedUp or BRILLIANT.MOD
:root
   order TX TY TZ RX RY RZ
   axis XYZ
   position 0 0 0  
   orientation 0 0 0 
:bonedata
  begin
     id 1 
     name lhipjoint
     direction 0.577973 -0.728611 0.367523 
     length 2.48544 
     axis 0 0 0  XYZ
  end
  begin
     id 2 
     name lfemur
     direction 0.34202 -0.939693 0  
     length 7.1921  
     axis 0 0 20  XYZ
    dof rx ry rz
    limits (-160.0 20.0)
           (-70.0 70.0)
           (-60.0 70.0)
  end
  begin
     id 3 
     name ltibia
     direction 0.34202 -0.939693 0   
     length 7.71059   
     axis 0 0 20   XYZ
    dof rx
    limits (-10.0 170.0)
  end
  begin
     id 4 
     name lfoot
     direction 0.089538 -0.246004 0.965124   
     length 2.19909   
     axis -90 7.62852e-016 20   XYZ
    dof rx rz
    limits (-45.0 90.0)
           (-70.0 20.0)
  end
  begin
     id 5 
     name ltoes
     direction 1.53544e-011 -4.21829e-011 1   
     length 1.10116   
     axis -90 7.62852e-016 20   XYZ
    dof rx
    limits (-90.0 20.0)
  end
  begin
     id 6 
     name rhipjoint
     direction -0.554414 -0.743062 0.374812   
     length 2.4371  
     axis 0 0 0  XYZ 
  end
  begin
     id 7 
     name rfemur
     direction -0.34202 -0.939693 0   
     length 7.47254   
     axis 0 0 -20   XYZ
    dof rx ry rz
    limits (-160.0 20.0)
           (-70.0 70.0)
           (-70.0 60.0)
  end
  begin
     id 8 
     name rtibia
     direction -0.34202 -0.939693 0   
     length 7.65855   
     axis 0 0 -20   XYZ
    dof rx
    limits (-10.0 170.0)
 end
 begin
     id 9 
     name rfoot
     direction -0.133779 -0.367555 0.92033   
     length 2.43006  
     axis -90 -7.62852e-016 -20   XYZ
    dof rx rz
    limits (-45.0 90.0)
           (-20.0 70.0)
  end
  begin
     id 10 
     name rtoes
     direction -1.53563e-011 -4.21889e-011 1   
     length 1.19625   
     axis -90 -7.62852e-016 -20   XYZ
    dof rx
    limits (-90.0 20.0)
  end
  begin
     id 11 
     name lowerback
     direction 0.0249066 0.998043 -0.0573585   
     length 2.08485   
     axis 0 0 0   XYZ
    dof rx ry rz
    limits (-20.0 45.0)
           (-30.0 30.0)
           (-30.0 30.0)
  end
  begin
     id 12 
     name upperback
     direction 0.0237884 0.999673 0.00943178   
     length 2.08515   
     axis 0 0 0   XYZ
    dof rx ry rz
    limits (-20.0 45.0)
           (-30.0 30.0)
           (-30.0 30.0)
  end
  begin
     id 13 
     name thorax
     direction 0.0106671 0.999301 0.0358174   
     length 2.09037   
     axis 0 0 0   XYZ
    dof rx ry rz
    limits (-20.0 45.0)
           (-30.0 30.0)
           (-30.0 30.0)
  end
  begin
     id 14 
     name lowerneck
     direction -0.0580016 0.987052 0.149546   
     length 1.84454   
     axis 0 0 0   XYZ
    dof rx ry rz
    limits (-20.0 45.0)
           (-30.0 30.0)
           (-30.0 30.0)
  end
  begin
     id 15 
     name upperneck
     direction 0.079456 0.981963 -0.171567   
     length 1.88141   
     axis 0 0 0   XYZ
    dof rx ry rz
    limits (-20.0 45.0)
           (-30.0 30.0)
           (-30.0 30.0)
  end
  begin
     id 16
     name head
     direction 0.0262167 0.9967 -0.0768276  
     length 1.89541  
     axis 0 0 0   XYZ
    dof rx ry rz
    limits (-20.0 45.0)
           (-30.0 30.0)
           (-30.0 30.0)
  end
  begin
     id 17 
     name lclavicle
     direction 0.946135 0.322134 -0.0325326  
     length 3.949  
     axis 0 0 0   XYZ
    dof ry rz
    limits (-20.0 10.0)
           (0.0 20.0)
  end
  begin
     id 18 
     name lhumerus
     direction 1 -4.48964e-011 1.94005e-028   
     length 5.10995   
     axis 180 -30 -90   XYZ
    dof rx ry rz
    limits (-60.0 90.0)
           (-90.0 90.0)
           (-90.0 90.0)
  end
  begin
     id 19
     name lradius
     direction 1 -4.48976e-011 2.87852e-027   
     length 3.21207   
     axis 180 -30 -90   XYZ
    dof rx
    limits (-10.0 170.0)
  end
  begin
     id 20
     name lwrist
     direction 1 -4.48963e-011 1.9975e-027   
     length 1.60604   
     axis 2.96054e-016 90 90   XYZ
    dof ry
    limits (-180.0 0.0)
 end
  begin
     id 21 
     name lhand
     direction 1 -4.48919e-011 4.00227e-027   
     length 0.63349   
     axis -2.5488e-015 90 90   XYZ
    dof rx rz
    limits (-90.0 90.0)
           (-45.0 45.0)
  end
  begin
     id 22 
     name lfingers
     direction 1 -4.49037e-011 7.9652e-027   
     length 0.510736   
     axis -5.0975e-015 90 90   XYZ
    dof rx
    limits (0.0 90.0)
  end
  begin
     id 23
     name lthumb
     direction 0.707107 -6.34922e-011 0.707107   
     length 0.733318   
     axis -90 45 -4.48553e-014   XYZ
    dof rx rz
    limits (-45.0 45.0)
           (-45.0 45.0)
  end
  begin
     id 24 
     name rclavicle
     direction -0.940085 0.328911 -0.0897654   
     length 3.93848  
     axis 0 0 0   XYZ 
    dof ry rz
    limits (-10.0 20.0)
           (-20.0 0.0)
  end
  begin
     id 25 
     name rhumerus
     direction -1 -4.48958e-011 3.02044e-027  
     length 5.25109   
     axis 180 30 90   XYZ
    dof rx ry rz
    limits (-90.0 60.0)
           (-90.0 90.0)
           (-90.0 90.0)
  end
  begin
     id 26 
     name rradius
     direction -1 -4.4897e-011 9.78352e-028   
     length 3.28364   
     axis 180 30 90   XYZ
    dof rx
    limits (-10.0 170.0)
  end
  begin
     id 27 
     name rwrist
     direction -1 -4.48943e-011 1.99918e-027   
     length 1.64182   
     axis 2.96054e-016 -90 -90   XYZ
    dof ry
    limits (-180.0 0.0)
  end
  begin
     id 28
     name rhand
     direction -1 -4.49024e-011 3.98478e-027   
     length 0.599745   
     axis -2.5488e-015 -90 -90   XYZ
    dof rx rz
    limits (-90.0 90.0)
           (-45.0 45.0)
  end
  begin
     id 29
     name rfingers
     direction -1 -4.48914e-011 8.00621e-027   
     length 0.48353   
     axis -5.0975e-015 -90 -90   XYZ
    dof rx
    limits (0.0 90.0)
  end
  begin
     id 30
     name rthumb
     direction -0.707107 -6.34992e-011 0.707107   
     length 0.694255   
     axis -90 -45 4.48553e-014   XYZ
    dof rx rz
    limits (-45.0 45.0)
           (-45.0 45.0)
  end
:hierarchy
  begin
    root lhipjoint rhipjoint lowerback
    lhipjoint lfemur
    lfemur ltibia
    ltibia lfoot
    lfoot ltoes
    rhipjoint rfemur
    rfemur rtibia
    rtibia rfoot
    rfoot rtoes
    lowerback upperback
    upperback thorax
    thorax lowerneck lclavicle rclavicle
    lowerneck upperneck
    upperneck head
    lclavicle lhumerus
    lhumerus lradius
    lradius lwrist
    lwrist lhand lthumb
    lhand lfingers
    rclavicle rhumerus
    rhumerus rradius
    rradius rwrist
    rwrist rhand rthumb
    rhand rfingers
  end

#!OML:ASF E:\CV Data\Top Level 1\Subject 1\Session 1\player.ASF
:FULLY-SPECIFIED
:DEGREES
372
root 7.46939 17.7509 -11.4051 7.53943 -15.4643 -1.07679
lowerback 1.25408 3.67143 0.194316
upperback -2.99348 4.93675 0.779771
thorax -3.83482 2.46625 0.466481
lowerneck -18.7439 -4.57399 -9.72692
upperneck 22.0433 -5.07977 6.20483
head 10.5997 -2.41941 3.09636
rclavicle -5.93869e-015 3.57812e-015
rhumerus -9.94914 31.7197 -93.284
rradius 79.8988
rwrist 16.8198
rhand -43.9804 24.4613
rfingers 7.12502
rthumb -16.8023 -4.83171
lclavicle -5.93869e-015 3.57812e-015
lhumerus -23.5397 -21.3367 97.6049
lradius 77.2628
lwrist 50.4576
lhand -20.296 36.327
lfingers 7.12502
lthumb 6.05408 66.2205
rfemur -1.90844 -2.95005 19.8969
rtibia 18.5889
rfoot -19.6209 -22.3569
rtoes 0.529748
lfemur -19.798 -0.413376 -16.6336
ltibia 22.4993
lfoot -5.78397 -3.25781
ltoes -4.15323
373
root 7.46826 17.7462 -11.4146 7.49632 -15.3074 -1.11695
lowerback 1.30508 3.67103 0.198801
upperback -3.02703 4.93718 0.777076
thorax -3.89785 2.46604 0.456209
lowerneck -18.5362 -4.63132 -9.7863
upperneck 21.9218 -5.18792 6.31632
head 10.531 -2.46342 3.1306
rclavicle 6.50771e-014 2.3059e-014
rhumerus -9.08836 31.9521 -92.8848
rradius 80.3703
rwrist 16.9969
rhand -44.0707 24.6277
rfingers 7.12502
rthumb -16.8893 -4.65788
lclavicle 6.50771e-014 2.3059e-014
lhumerus -22.7417 -21.8807 97.4832
lradius 78.0239
lwrist 50.3701
lhand -20.1606 36.8472
lfingers 7.12502
lthumb 6.18478 66.7369
rfemur -1.94994 -3.07135 19.9675
rtibia 18.7536
rfoot -19.6865 -22.3823
rtoes 0.51871
lfemur -19.893 -0.407559 -16.5854
ltibia 22.6702
lfoot -5.84852 -3.38502
ltoes -4.16863
374
root 7.46771 17.7414 -11.4221 7.42743 -15.2034 -1.15763
lowerback 1.36515 3.6893 0.207654
upperback -3.05368 4.96271 0.774921
thorax -3.95882 2.47817 0.442501
lowerneck -18.3158 -4.6948 -9.85479
upperneck 21.7943 -5.30381 6.43105
head 10.4591 -2.5118 3.16648
rclavicle 2.68359e-015 -2.18663e-015
rhumerus -8.21715 32.1365 -92.4716
rradius 80.8066
rwrist 17.2099
rhand -44.1581 24.8282
rfingers 7.12502
rthumb -16.9734 -4.45017
lclavicle 2.68359e-015 -2.18663e-015
lhumerus -21.8976 -22.4144 97.3444
lradius 78.7474
lwrist 50.2502
lhand -20.0132 37.1802
lfingers 7.12502
lthumb 6.3271 67.0657
rfemur -1.96239 -3.17835 20.021
rtibia 18.9143
rfoot -19.7494 -22.3719
rtoes 0.499
lfemur -19.9359 -0.390049 -16.542
ltibia 22.8259
lfoot -5.91358 -3.47309
ltoes -4.18302
375
root 7.46756 17.7367 -11.429 7.33709 -15.1293 -1.19017
lowerback 1.43308 3.71597 0.208224
upperback -3.06241 4.99904 0.77267
thorax -4.00643 2.49595 0.432855
lowerneck -18.1336 -4.76393 -9.93104
upperneck 21.6743 -5.42386 6.5544
head 10.3985 -2.56129 3.20592
rclavicle 1.86361e-016 2.82274e-014
rhumerus -7.29681 32.2858 -92.0281
rradius 81.2038
rwrist 17.4375
rhand -44.2693 25.0252
rfingers 7.12502
rthumb -17.0804 -4.24396
lclavicle 1.86361e-016 2.82274e-014
lhumerus -20.9743 -22.9446 97.1745
lradius 79.4325
lwrist 50.1534
lhand -19.9259 37.3231
lfingers 7.12502
lthumb 6.41133 67.2061
rfemur -1.95408 -3.2852 20.0549
rtibia 19.0716
rfoot -19.8102 -22.334
rtoes 0.480126
lfemur -19.9413 -0.373044 -16.508
ltibia 22.9653
lfoot -5.97415 -3.53845
ltoes -4.17818
376
root 7.46777 17.732 -11.436 7.2421 -15.0763 -1.2111
lowerback 1.51049 3.74942 0.185836
upperback -3.05581 5.04367 0.773556
thorax -4.04585 2.51863 0.438518
lowerneck -18.0381 -4.84158 -10.0087
upperneck 21.5805 -5.54724 6.67642
head 10.3645 -2.61128 3.24406
rclavicle 1.0343e-014 -1.59028e-015
rhumerus -6.31623 32.4053 -91.5405
rradius 81.565
rwrist 17.6619
rhand -44.5706 25.4592
rfingers 7.12502
rthumb -17.3704 -3.78459
lclavicle 1.0343e-014 -1.59028e-015
lhumerus -19.9603 -23.4772 96.9752
lradius 80.0852
lwrist 50.1061
lhand -19.9564 37.1285
lfingers 7.12502
lthumb 6.38191 67.0123
rfemur -1.94628 -3.39721 20.0686
rtibia 19.2274
rfoot -19.8697 -22.2698
rtoes 0.470566
lfemur -19.9322 -0.363634 -16.4863
ltibia 23.0878
lfoot -6.02683 -3.58142
ltoes -4.17786
377
root 7.46825 17.7275 -11.4431 7.14651 -15.0427 -1.21751
lowerback 1.58615 3.78508 0.13889
upperback -3.03674 5.0903 0.777441
thorax -4.07383 2.54315 0.461214
lowerneck -17.9954 -4.92084 -10.0833
upperneck 21.494 -5.66649 6.79059
head 10.3426 -2.65912 3.27897
rclavicle -3.78312e-014 4.17448e-015
rhumerus -5.28006 32.5145 -91.0182
rradius 81.9015
rwrist 17.8599
rhand -44.9885 26.0046
rfingers 7.12502
rthumb -17.7725 -3.20324
lclavicle -3.78312e-014 4.17448e-015
lhumerus -18.8664 -23.9988 96.744
lradius 80.7075
lwrist 50.1141
lhand -20.0303 36.8463
lfingers 7.12502
lthumb 6.31058 66.7323
rfemur -1.95013 -3.50882 20.0619
rtibia 19.3931
rfoot -19.9299 -22.1892
rtoes 0.45506
lfemur -19.914 -0.360597 -16.4792
ltibia 23.1928
lfoot -6.071 -3.60458
ltoes -4.19515
378
root 7.46897 17.7229 -11.4506 7.05308 -15.0281 -1.21066
lowerback 1.6876 3.82687 0.0605146
upperback -3.02897 5.14445 0.786506
thorax -4.13161 2.57238 0.503586
lowerneck -17.9826 -5.00069 -10.1558
upperneck 21.4243 -5.7824 6.89558
head 10.332 -2.70592 3.31057
rclavicle -5.17337e-014 -7.35503e-015
rhumerus -4.23715 32.6065 -90.4849
rradius 82.2237
rwrist 18.0292
rhand -45.4946 26.5501
rfingers 7.12502
rthumb -18.2595 -2.61283
lclavicle -5.17337e-014 -7.35503e-015
lhumerus -17.7439 -24.5059 96.5033
lradius 81.3073
lwrist 50.1466
lhand -20.1652 36.4966
lfingers 7.12502
lthumb 6.18032 66.3865
rfemur -1.97188 -3.61286 20.0372
rtibia 19.5762
rfoot -19.9977 -22.0952
rtoes 0.451766
lfemur -19.8905 -0.364491 -16.4852
ltibia 23.2808
lfoot -6.10748 -3.60732
ltoes -4.22288
379
root 7.46978 17.7185 -11.4586 6.96617 -15.0215 -1.18864
lowerback 1.77048 3.86404 -0.0260311
upperback -3.00422 5.19131 0.786933
thorax -4.1612 2.5982 0.543975
lowerneck -18.0192 -5.07611 -10.2065
upperneck 21.353 -5.89059 6.99109
head 10.3286 -2.74745 3.33564
rclavicle -3.06253e-015 -1.21259e-014
rhumerus -3.12825 32.6944 -89.9359
rradius 82.5266
rwrist 18.1598
rhand -45.9495 26.9572
rfingers 7.12502
rthumb -18.6971 -2.16422
lclavicle -3.06253e-015 -1.21259e-014
lhumerus -16.539 -24.9919 96.2029
lradius 81.8766
lwrist 50.1651
lhand -20.2993 36.2847
lfingers 7.12502
lthumb 6.05086 66.1783
rfemur -2.01843 -3.71953 19.9959
rtibia 19.7798
rfoot -20.0689 -21.9947
rtoes 0.433265
lfemur -19.8696 -0.379669 -16.5048
ltibia 23.3514
lfoot -6.13277 -3.59565
ltoes -4.25475
380
root 7.47063 17.7142 -11.4678 6.8876 -15.0125 -1.15426
lowerback 1.84634 3.89082 -0.109386
upperback -3.00606 5.22418 0.778891
thorax -4.21331 2.61681 0.573968
lowerneck -17.938 -5.13195 -10.2557
upperneck 21.2477 -5.98273 7.08806
head 10.2894 -2.78366 3.36437
rclavicle -2.09345e-015 -4.77083e-015
rhumerus -2.06547 32.7788 -89.4401
rradius 82.8082
rwrist 18.2639
rhand -46.3126 27.1167
rfingers 7.12502
rthumb -19.0463 -1.97078
lclavicle -2.09345e-015 -4.77083e-015
lhumerus -15.3635 -25.4423 95.8831
lradius 82.4259
lwrist 50.1612
lhand -20.4271 36.137
lfingers 7.12502
lthumb 5.92749 66.0341
rfemur -2.13624 -3.82993 19.9451
rtibia 20.0945
rfoot -20.1933 -21.897
rtoes 0.404178
lfemur -19.8945 -0.405912 -16.5344
ltibia 23.4801
lfoot -6.18443 -3.57197
ltoes -4.31253
381
root 7.47144 17.7103 -11.4784 6.81767 -14.9904 -1.11211
lowerback 1.90677 3.9017 -0.1809
upperback -2.99875 5.23547 0.759174
thorax -4.24469 2.62417 0.588245
lowerneck -17.8687 -5.17282 -10.2871
upperneck 21.1364 -6.0578 7.18718
head 10.2481 -2.81016 3.39331
rclavicle -4.46458e-014 -4.77083e-015
rhumerus -0.95163 32.8622 -88.9564
rradius 83.0562
rwrist 18.324
rhand -46.4795 26.9487
rfingers 7.12502
rthumb -19.2069 -2.12284
lclavicle -4.46458e-014 -4.77083e-015
lhumerus -14.1384 -25.861 95.4997
lradius 82.9434
lwrist 50.125
lhand -20.5346 36.0507
lfingers 7.12502
lthumb 5.82369 65.9507
rfemur -2.27967 -3.95227 19.8914
rtibia 20.4291
rfoot -20.3186 -21.8064
rtoes 0.358296
lfemur -19.9291 -0.449221 -16.5676
ltibia 23.59
lfoot -6.22097 -3.55325
ltoes -4.36463
382
root 7.47274 17.6961 -11.4918 6.75458 -14.9569 -1.06168
lowerback 1.95861 3.89662 -0.240986
upperback -2.98239 5.22522 0.72857
thorax -4.25937 2.62029 0.587397
lowerneck -17.8086 -5.19815 -10.2998
upperneck 21.0174 -6.11413 7.28377
head 10.2033 -2.82671 3.42086
rclavicle -5.03174e-014 -1.23246e-014
rhumerus 0.205159 32.9467 -88.4835
rradius 83.2681
rwrist 18.3313
rhand -46.4658 26.5008
rfingers 7.12502
rthumb -19.1936 -2.57213
lclavicle -5.03174e-014 -1.23246e-014
lhumerus -12.8695 -26.2399 95.056
lradius 83.4236
lwrist 50.0432
lhand -20.6217 35.9229
lfingers 7.12502
lthumb 5.73964 65.8252
rfemur -2.45407 -4.08724 19.8328
rtibia 20.7938
rfoot -20.4515 -21.7214
rtoes 0.304101
lfemur -19.9961 -0.508008 -16.6041
ltibia 23.6995
lfoot -6.23737 -3.54319
ltoes -4.42009
